<?xml version="1.0" standalone="no"?>
<!DOCTYPE svg PUBLIC "-//W3C//DTD SVG 20010904//EN"
 "http://www.w3.org/TR/2001/REC-SVG-20010904/DTD/svg10.dtd">
<svg version="1.0" xmlns="http://www.w3.org/2000/svg"
 width="571.000000pt" height="571.000000pt" viewBox="0 0 571.000000 571.000000"
 preserveAspectRatio="xMidYMid meet">
<metadata>
Created by potrace 1.14, written by Peter Selinger 2001-2017
</metadata>
<g transform="translate(0.000000,571.000000) scale(0.100000,-0.100000)"
fill="#000000" stroke="none">
<path d="M0 2855 l0 -2855 2855 0 2855 0 0 2855 0 2855 -2855 0 -2855 0 0
-2855z m3435 1930 c372 -100 694 -547 894 -1243 123 -426 172 -780 167 -1207
-6 -504 -83 -736 -320 -963 -223 -214 -544 -350 -966 -408 -130 -18 -463 -25
-590 -13 -226 21 -455 70 -607 129 -228 87 -437 270 -564 493 -127 223 -192
497 -192 807 1 531 162 984 523 1465 392 523 873 875 1298 951 95 17 274 11
357 -11z"/>
</g>
</svg>
